<?xml version="1.0" encoding="iso-8859-1"?>
<!-- Generator: Adobe Illustrator 19.0.0, SVG Export Plug-In . SVG Version: 6.00 Build 0)  -->
<svg version="1.1" id="Layer_1" xmlns="http://www.w3.org/2000/svg" xmlns:xlink="http://www.w3.org/1999/xlink" x="0px" y="0px"
	 viewBox="0 0 330 330" style="enable-background:new 0 0 330 330;" xml:space="preserve">
<g id="XMLID_450_">
	<g id="XMLID_451_">
		<path id="XMLID_452_" d="M315,60h-45V15c0-8.284-6.716-15-15-15H75c-8.284,0-15,6.716-15,15v45H15C6.716,60,0,66.716,0,75v180
			c0,8.284,6.716,15,15,15h45v45c0,8.284,6.716,15,15,15h180c8.284,0,15-6.716,15-15v-45h45c8.284,0,15-6.716,15-15V75
			C330,66.716,323.284,60,315,60z M90,30h150v30H90V30z M240,300H90V150h150V300z M300,240h-30V135c0-8.284-6.716-15-15-15H75
			c-8.284,0-15,6.716-15,15v105H30V90h45h180h45V240z"/>
	</g>
	<g id="XMLID_459_">
		<path id="XMLID_460_" d="M195,240h-60c-8.284,0-15,6.716-15,15c0,8.284,6.716,15,15,15h60c8.284,0,15-6.716,15-15
			C210,246.716,203.284,240,195,240z"/>
	</g>
	<g id="XMLID_461_">
		<path id="XMLID_462_" d="M195,180h-60c-8.284,0-15,6.716-15,15s6.716,15,15,15h60c8.284,0,15-6.716,15-15S203.284,180,195,180z"/>
	</g>
</g>
<g>
</g>
<g>
</g>
<g>
</g>
<g>
</g>
<g>
</g>
<g>
</g>
<g>
</g>
<g>
</g>
<g>
</g>
<g>
</g>
<g>
</g>
<g>
</g>
<g>
</g>
<g>
</g>
<g>
</g>
</svg>
